<?xml version="1.0" standalone="no"?>
<!DOCTYPE svg PUBLIC "-//W3C//DTD SVG 20010904//EN"
 "http://www.w3.org/TR/2001/REC-SVG-20010904/DTD/svg10.dtd">
<svg version="1.0" xmlns="http://www.w3.org/2000/svg"
 width="300.000000pt" height="300.000000pt" viewBox="0 0 300.000000 300.000000"
 preserveAspectRatio="xMidYMid meet">
<metadata>
Created by potrace 1.14, written by Peter Selinger 2001-2017
</metadata>
<g transform="translate(0.000000,300.000000) scale(0.100000,-0.100000)"
fill="#000000" stroke="none">
<path d="M0 1500 l0 -1500 1500 0 1500 0 0 1500 0 1500 -1500 0 -1500 0 0
-1500z m1202 243 l3 -508 24 -52 c54 -121 187 -185 335 -162 102 17 169 66
218 159 l23 45 3 513 3 512 154 0 155 0 0 -519 c0 -300 -4 -540 -10 -571 -26
-137 -138 -281 -270 -348 -112 -56 -213 -75 -365 -70 -197 8 -324 57 -438 170
-70 69 -122 174 -137 275 -5 37 -10 292 -10 566 l0 497 154 0 155 0 3 -507z"/>
</g>
</svg>
